Coordinates
version=1
nRows=6
nColumns=34
inDegrees=yes

Units are S.I. units (second, meters, Newtons, ...)
Angles are in degrees.

endheader
time	pelvis_tilt	pelvis_list	pelvis_rotation	pelvis_tx	pelvis_ty	pelvis_tz	hip_flexion_r	hip_adduction_r	hip_rotation_r	knee_angle_r	ankle_angle_r	subtalar_angle_r	mtp_angle_r	hip_flexion_l	hip_adduction_l	hip_rotation_l	knee_angle_l	socket_flexion	socket_adduction	socket_rotation	socket_tx	socket_ty	socket_tz	pros_ankle_rx	pros_ankle_ry	pros_ankle_rz	pros_ankle_tx	pros_ankle_ty	pros_ankle_tz	foot_flex	lumbar_extension	lumbar_bending	lumbar_rotation
      0.89166667	      3.60724329	     -9.04125660	     10.98051923	      0.43964240	      1.05051749	      0.39435504	      4.81284341	     11.42186644	    -16.72175190	    -13.95705880	      6.47247754	     11.72517397	     13.11106335	     19.05878518	    -13.69540683	      7.08082860	    -75.01310961	      0.00000000	      0.00000000	      0.00000000	      0.00000000	     -0.00264345	      0.00000000	      0.00000000	      0.00000000	      0.00000000	      0.00000000	      0.00000000	      0.00000000	      4.25553314	    -15.15984087	      5.11894457	    -25.11902266
      0.89583333	      3.51196779	     -8.81728661	     10.91966097	      0.44479390	      1.05165097	      0.39415615	      4.40783714	     11.24032642	    -16.65061458	    -13.70266282	      6.51555187	     11.85744877	     13.18381121	     19.53058043	    -13.16526188	      7.19573159	    -74.53878591	      0.00000000	      0.00000000	      0.00000000	      0.00000000	     -0.00251915	      0.00000000	      0.00000000	      0.00000000	      0.00000000	      0.00000000	      0.00000000	      0.00000000	      4.22404022	    -15.07307806	      4.85921479	    -25.05821246
      0.90000000	      3.41992445	     -8.57723972	     10.85755931	      0.45009266	      1.05285426	      0.39396789	      3.94777726	     11.05046837	    -16.62105511	    -13.36572178	      6.46472143	     12.04423190	     13.26111595	     19.94444214	    -12.64249895	      7.26740851	    -73.97000799	      0.00000000	      0.00000000	      0.00000000	      0.00000000	     -0.00241139	      0.00000000	      0.00000000	      0.00000000	      0.00000000	      0.00000000	      0.00000000	      0.00000000	      4.18692216	    -14.98365552	      4.54109822	    -25.04286334
      0.90416667	      3.35308831	     -8.33619029	     10.78008511	      0.45544456	      1.05406484	      0.39380359	      3.42788511	     10.86413233	    -16.62784265	    -12.96878918	      6.36441302	     12.26938527	     13.36431671	     20.28683715	    -12.13404214	      7.32206789	    -73.33708186	      0.00000000	      0.00000000	      0.00000000	      0.00000000	     -0.00238646	      0.00000000	      0.00000000	      0.00000000	      0.00000000	      0.00000000	      0.00000000	      0.00000000	      4.15419728	    -14.92102885	      4.22003210	    -25.05859566
      0.90833333	      3.32200608	     -8.11153097	     10.72762342	      0.46066747	      1.05530584	      0.39359196	      2.89774652	     10.69815680	    -16.62691924	    -12.59833542	      6.26522558	     12.49109971	     13.48170004	     20.61121747	    -11.65936822	      7.37010290	    -72.67476032	      0.00000000	      0.00000000	      0.00000000	      0.00000000	     -0.00232390	      0.00000000	      0.00000000	      0.00000000	      0.00000000	      0.00000000	      0.00000000	      0.00000000	      4.12500917	    -14.91474166	      3.96089194	    -25.06927738
      0.91250000	      3.28405536	     -7.86968177	     10.67410057	      0.46596510	      1.05656502	      0.39343318	      2.34478598	     10.52333633	    -16.62270501	    -12.18818521	      6.14825297	     12.72992604	     13.61278479	     20.89583814	    -11.17619597	      7.41090043	    -71.93352853	      0.00000000	      0.00000000	      0.00000000	      0.00000000	     -0.00228583	      0.00000000	      0.00000000	      0.00000000	      0.00000000	      0.00000000	      0.00000000	      0.00000000	      4.09037882	    -14.89555024	      3.65522164	    -25.07321402
